<svg data-v-423bf9ae="" xmlns="http://www.w3.org/2000/svg" viewBox="0 0 405 95" class="iconLeft"><!----><!----><!----><g data-v-423bf9ae="" id="00c658f6-aa1f-4239-afca-f2cbc449e083" fill="#1C300E" transform="matrix(5.853658536585366,0,0,5.853658536585366,96.21042635091922,3.320571294644985)"><path d="M2.89 12.67L0.84 12.67L0.84 2.42L5.31 2.42L5.31 2.42Q8.90 2.42 8.90 5.37L8.90 5.37L8.90 5.37Q8.90 8.44 5.32 8.44L5.32 8.44L2.89 8.44L2.89 12.67ZM2.89 4.34L2.89 6.52L5.76 6.52L5.76 6.52Q7 6.50 7.03 5.39L7.03 5.39L7.03 5.39Q7 4.38 5.78 4.34L5.78 4.34L2.89 4.34ZM12.17 12.67L10.25 12.67L10.25 2.42L12.17 2.42L12.17 12.67ZM15.05 7.82L14.30 6.66L14.30 6.66Q15.60 5.84 17.31 5.84L17.31 5.84L17.31 5.84Q18.54 5.84 19.26 6.52L19.26 6.52L19.26 6.52Q19.97 7.21 19.97 8.57L19.97 8.57L19.97 12.67L18.06 12.67L18.06 12.13L18.06 12.13Q17.23 12.67 16.56 12.67L16.56 12.67L16.56 12.67Q15.19 12.67 14.51 12.09L14.51 12.09L14.51 12.09Q13.82 11.51 13.82 10.49L13.82 10.49L13.82 10.49Q13.82 9.53 14.47 8.78L14.47 8.78L14.47 8.78Q15.11 8.03 16.56 8.03L16.56 8.03L16.56 8.03Q17.22 8.03 18.06 8.44L18.06 8.44L18.06 8.23L18.06 8.23Q18.05 7.48 16.97 7.41L16.97 7.41L16.97 7.41Q15.74 7.41 15.05 7.82L15.05 7.82ZM18.06 10.62L18.06 10.62L18.06 9.85L18.06 9.85Q17.79 9.32 16.76 9.32L16.76 9.32L16.76 9.32Q15.53 9.46 15.46 10.28L15.46 10.28L15.46 10.28Q15.53 11.09 16.76 11.16L16.76 11.16L16.76 11.16Q17.79 11.16 18.06 10.62ZM23.60 8.33L23.60 8.33L23.60 12.67L21.68 12.67L21.68 6.04L23.60 5.83L23.60 6.45L23.60 6.45Q24.29 5.84 25.24 5.84L25.24 5.84L25.24 5.84Q26.54 5.84 27.22 6.62L27.22 6.62L27.22 6.62Q27.90 7.41 27.90 8.44L27.90 8.44L27.90 12.67L25.99 12.67L25.99 8.91L25.99 8.91Q25.99 8.23 25.65 7.85L25.65 7.85L25.65 7.85Q25.31 7.48 24.62 7.46L24.62 7.46L24.62 7.46Q24.02 7.50 23.60 8.33ZM33.73 12.35L33.73 12.35Q33.24 12.67 32.60 12.67L32.60 12.67L32.60 12.67Q31.44 12.67 30.75 12.02L30.75 12.02L30.75 12.02Q30.07 11.38 30.07 10.35L30.07 10.35L30.07 7.39L29.05 7.39L29.05 5.84L30.07 5.84L30.07 3.99L31.99 3.79L31.99 5.84L33.02 5.84L33.02 7.39L31.99 7.39L31.99 10.08L31.99 10.08Q31.99 10.62 32.22 10.85L32.22 10.85L32.22 10.85Q32.45 11.07 32.81 11.07L32.81 11.07L32.81 11.07Q32.92 11.07 33.33 10.98L33.33 10.98L33.73 12.35ZM42.54 12.67L35.02 12.67L35.02 2.43L42.55 2.42L42.55 4.33L37.07 4.33L37.07 6.52L41.18 6.52L41.18 8.43L37.07 8.43L37.07 10.76L42.54 10.76L42.54 12.67ZM52.66 10.76L52.66 12.67L44.45 12.67L44.45 11.99L49.23 4.33L44.45 4.33L44.45 2.42L52.66 2.42L52.66 3.17L47.86 10.76L52.66 10.76Z"></path></g><defs data-v-423bf9ae=""><linearGradient data-v-423bf9ae="" gradientTransform="rotate(25)" id="dfbc3457-126f-4e0f-837a-9a918de93eae" x1="0%" y1="0%" x2="100%" y2="0%"><stop data-v-423bf9ae="" offset="0%" style="stop-color: rgb(33, 105, 15); stop-opacity: 1;"></stop><stop data-v-423bf9ae="" offset="100%" style="stop-color: rgb(136, 200, 72); stop-opacity: 1;"></stop></linearGradient></defs><g data-v-423bf9ae="" id="91ef9d9d-8193-425e-9f93-874eeaa8cb48" transform="matrix(1.0272555033365884,0,0,1.0272555033365884,-11.887896781189184,-4.629733544825399)" stroke="none" fill="url(#dfbc3457-126f-4e0f-837a-9a918de93eae)"><path d="M89.49 29.505c-.238.018-20.851 1.874-28.589 20.336 2.268-10.964 3.965-29.313-5.204-43.779L53.43 7.216c.075.189 7.157 18.845-3.334 49.291-.429-6.45-1.224-25.48 2.867-41.177l-2.389-.873c-.191.4-4.351 9.355-8.286 36.226C38.965 26.349 45.481 7.4 45.554 7.192l.464-1.317-2.418-.617-.468.897c-7.682 14.731-9.657 28.51-9.785 38.336-5.911-14.139-19.941-14.98-20.12-14.989l-1.334-.06v2.466l.787.327c14.843 6.17 14.644 21.253 14.287 25.415-1.796.143-3.218 1.634-3.218 3.466l5.914 33.226a3.5 3.5 0 0 0 3.492 3.369h28.093a3.499 3.499 0 0 0 3.492-3.369l5.894-33.001.021-.225a3.494 3.494 0 0 0-2.924-3.437c.733-4.773 4.523-21.28 22.149-25.38l.988-.23v-2.673l-1.378.109zm-31.306-11.43c4.659 16.844-.644 35.427-1.949 39.547H52.41c5.992-17.237 6.561-30.729 5.774-39.547zM47.455 35.613c-.58 10.056-.084 18.729.158 22.009h-3.704c1.168-8.945 2.392-16.215 3.546-22.009zm-7.418-15.524c-1.417 9.378-2.172 22.75.85 37.533h-3.936c-.727-3.895-2.907-19.118 3.086-37.533zM20.844 34.28c5.564 2.803 12.143 9.123 12.516 23.342h-3.848c.259-4.063.129-15.649-8.668-23.342zm47.25 26.746l-5.887 32.965-.02.225a.94.94 0 0 1-.94.939H33.154a.94.94 0 0 1-.939-.939l-5.908-33.189a.94.94 0 0 1 .936-.85h39.916c.487 0 .89.374.935.849zm-2.935-3.404h-3.892c2.107-11.347 8.636-17.696 14.916-21.22-8.342 7.308-10.515 17.736-11.024 21.22z"></path></g><!----></svg>